<?xml version="1.0" encoding="UTF-8" standalone="no"?>
<!-- Created with Inkscape (http://www.inkscape.org/) -->
<svg
   xmlns:svg="http://www.w3.org/2000/svg"
   xmlns="http://www.w3.org/2000/svg"
   xmlns:inkscape="http://www.inkscape.org/namespaces/inkscape"
   version="1.0"
   width="500"
   height="94.754623"
   id="svg3718">
  <defs
     id="defs3720">
    <clipPath
       id="clipPath2837">
      <path
         d="M 0,841.98 L 595.2,841.98 L 595.2,0 L 0,0 L 0,841.98 z"
         id="path2839" />
    </clipPath>
    <clipPath
       id="clipPath2831">
      <path
         d="M -0.138,841.945 L 595.138,841.945 L 595.138,0.055 L -0.138,0.055 L -0.138,841.945 z"
         id="path2833" />
    </clipPath>
    <clipPath
       id="clipPath2825">
      <path
         d="M 449.047,55.812 L 602.449,55.812 L 602.449,17.725 L 449.047,17.725 L 449.047,55.812 z"
         id="path2827" />
    </clipPath>
    <inkscape:perspective
       id="perspective3726" />
  </defs>
  <g
     transform="translate(-277.11403,-451.42005)"
     id="layer1">
    <g
       transform="matrix(4.2875396,0,0,-4.2875396,-1648.4886,690.16741)"
       id="g2821">
      <g
         clip-path="url(#clipPath2825)"
         id="g2823">
        <g
           clip-path="url(#clipPath2831)"
           id="g2829">
          <g
             clip-path="url(#clipPath2837)"
             id="g2835">
            <path
               d="M 476.237,33.706 L 476.733,33.706 L 476.733,36.508 L 479.824,36.508 L 479.824,33.706 L 480.319,33.706 L 480.319,39.489 L 479.824,39.489 L 479.824,36.978 L 476.733,36.978 L 476.733,39.489 L 476.237,39.489 L 476.237,33.706"
               id="path2841"
               style="fill:#231f20;fill-opacity:1;fill-rule:nonzero;stroke:none" />
            <path
               d="M 481.09,36.598 C 481.09,35.018 481.907,33.584 483.547,33.584 C 485.18,33.584 485.996,35.018 485.996,36.598 C 485.996,38.177 485.18,39.611 483.547,39.611 C 481.907,39.611 481.09,38.177 481.09,36.598 z M 481.586,36.598 C 481.586,37.861 482.169,39.141 483.547,39.141 C 484.917,39.141 485.501,37.861 485.501,36.598 C 485.501,35.334 484.917,34.054 483.547,34.054 C 482.169,34.054 481.586,35.334 481.586,36.598"
               id="path2843"
               style="fill:#231f20;fill-opacity:1;fill-rule:evenodd;stroke:none" />
            <path
               d="M 491.069,37.74 C 490.938,38.955 489.961,39.611 488.977,39.611 C 487.336,39.611 486.52,38.177 486.52,36.598 C 486.52,35.018 487.336,33.584 488.977,33.584 C 490.194,33.584 491.003,34.492 491.142,35.909 L 490.646,35.909 C 490.551,34.88 489.939,34.054 488.977,34.054 C 487.599,34.054 487.016,35.334 487.016,36.598 C 487.016,37.861 487.599,39.141 488.977,39.141 C 489.735,39.141 490.398,38.631 490.573,37.74 L 491.069,37.74"
               id="path2845"
               style="fill:#231f20;fill-opacity:1;fill-rule:nonzero;stroke:none" />
            <path
               d="M 491.898,33.706 L 492.394,33.706 L 492.394,36.508 L 495.485,36.508 L 495.485,33.706 L 495.98,33.706 L 495.98,39.489 L 495.485,39.489 L 495.485,36.978 L 492.394,36.978 L 492.394,39.489 L 491.898,39.489 L 491.898,33.706"
               id="path2847"
               style="fill:#231f20;fill-opacity:1;fill-rule:nonzero;stroke:none" />
            <path
               d="M 496.766,35.609 C 496.707,34.2 497.611,33.584 498.843,33.584 C 500.688,33.584 500.833,34.84 500.833,35.237 C 500.833,36.185 500.221,36.541 499.485,36.76 L 498.216,37.108 C 497.794,37.221 497.429,37.448 497.429,37.991 C 497.429,38.849 498.056,39.141 498.734,39.141 C 499.47,39.141 500.126,38.695 500.156,37.813 L 500.651,37.813 C 500.659,38.995 499.755,39.611 498.727,39.611 C 497.261,39.611 496.933,38.55 496.933,37.983 C 496.933,37.084 497.495,36.76 498.107,36.59 L 499.266,36.274 C 499.747,36.144 500.338,35.885 500.338,35.229 C 500.338,34.386 499.507,34.054 498.96,34.054 C 498.012,34.054 497.24,34.419 497.261,35.609 L 496.766,35.609"
               id="path2849"
               style="fill:#231f20;fill-opacity:1;fill-rule:nonzero;stroke:none" />
            <path
               d="M 505.921,37.74 C 505.79,38.955 504.813,39.611 503.828,39.611 C 502.188,39.611 501.372,38.177 501.372,36.598 C 501.372,35.018 502.188,33.584 503.828,33.584 C 505.046,33.584 505.855,34.492 505.994,35.909 L 505.498,35.909 C 505.403,34.88 504.791,34.054 503.828,34.054 C 502.451,34.054 501.868,35.334 501.868,36.598 C 501.868,37.861 502.451,39.141 503.828,39.141 C 504.587,39.141 505.25,38.631 505.425,37.74 L 505.921,37.74"
               id="path2851"
               style="fill:#231f20;fill-opacity:1;fill-rule:nonzero;stroke:none" />
            <path
               d="M 506.75,33.706 L 507.246,33.706 L 507.246,36.508 L 510.336,36.508 L 510.336,33.706 L 510.832,33.706 L 510.832,39.489 L 510.336,39.489 L 510.336,36.978 L 507.246,36.978 L 507.246,39.489 L 506.75,39.489 L 506.75,33.706"
               id="path2853"
               style="fill:#231f20;fill-opacity:1;fill-rule:nonzero;stroke:none" />
            <path
               d="M 511.829,35.788 C 511.829,34.597 512.405,33.584 513.848,33.584 C 515.299,33.584 515.875,34.597 515.875,35.788 L 515.875,39.489 L 515.379,39.489 L 515.379,35.909 C 515.386,34.565 514.81,34.054 513.848,34.054 C 512.893,34.054 512.317,34.565 512.325,35.909 L 512.325,39.489 L 511.829,39.489 L 511.829,35.788"
               id="path2855"
               style="fill:#231f20;fill-opacity:1;fill-rule:nonzero;stroke:none" />
            <path
               d="M 516.87,33.706 L 520.282,33.706 L 520.282,34.176 L 517.366,34.176 L 517.366,39.489 L 516.87,39.489 L 516.87,33.706"
               id="path2857"
               style="fill:#231f20;fill-opacity:1;fill-rule:nonzero;stroke:none" />
            <path
               d="M 520.783,33.706 L 524.414,33.706 L 524.414,34.176 L 521.279,34.176 L 521.279,36.46 L 524.18,36.46 L 524.18,36.93 L 521.279,36.93 L 521.279,39.02 L 524.377,39.02 L 524.377,39.489 L 520.783,39.489 L 520.783,33.706"
               id="path2859"
               style="fill:#231f20;fill-opacity:1;fill-rule:nonzero;stroke:none" />
            <path
               d="M 527.121,33.706 L 527.617,33.706 L 527.617,38.598 L 527.631,38.598 L 530.664,33.706 L 531.218,33.706 L 531.218,39.489 L 530.722,39.489 L 530.722,34.597 L 530.707,34.597 L 527.675,39.489 L 527.121,39.489 L 527.121,33.706"
               id="path2861"
               style="fill:#231f20;fill-opacity:1;fill-rule:nonzero;stroke:none" />
            <path
               d="M 532.207,35.788 C 532.207,34.597 532.783,33.584 534.227,33.584 C 535.677,33.584 536.253,34.597 536.253,35.788 L 536.253,39.489 L 535.757,39.489 L 535.757,35.909 C 535.765,34.565 535.189,34.054 534.227,34.054 C 533.271,34.054 532.696,34.565 532.703,35.909 L 532.703,39.489 L 532.207,39.489 L 532.207,35.788 z M 534.628,40.089 L 535.12367,40.089 L 535.12367,40.90721 L 534.628,40.90721 L 534.628,40.089 z M 533.337,40.089 L 533.83261,40.089 L 533.83261,40.90721 L 533.337,40.90721 L 533.337,40.089 z"
               id="path2863"
               style="fill:#231f20;fill-opacity:1;fill-rule:evenodd;stroke:none" />
            <path
               d="M 537.248,33.706 L 537.744,33.706 L 537.744,36.274 L 539.625,36.274 C 540.565,36.314 540.624,35.415 540.667,34.605 C 540.682,34.362 540.682,33.933 540.806,33.706 L 541.353,33.706 C 541.134,33.997 541.134,34.791 541.112,35.188 C 541.076,35.877 540.879,36.395 540.201,36.492 L 540.201,36.508 C 540.872,36.654 541.214,37.254 541.214,37.983 C 541.214,39.028 540.492,39.489 539.632,39.489 L 537.248,39.489 L 537.248,33.706 z M 537.744,39.02 L 539.596,39.02 C 540.339,39.02 540.719,38.574 540.719,37.869 C 540.719,37.165 540.201,36.743 539.596,36.743 L 537.744,36.743 L 537.744,39.02"
               id="path2865"
               style="fill:#231f20;fill-opacity:1;fill-rule:evenodd;stroke:none" />
            <path
               d="M 542.103,33.706 L 542.599,33.706 L 542.599,38.598 L 542.614,38.598 L 545.646,33.706 L 546.2,33.706 L 546.2,39.489 L 545.704,39.489 L 545.704,34.597 L 545.69,34.597 L 542.657,39.489 L 542.103,39.489 L 542.103,33.706"
               id="path2867"
               style="fill:#231f20;fill-opacity:1;fill-rule:nonzero;stroke:none" />
            <path
               d="M 547.736,36.484 L 549.442,36.484 C 550.31,36.484 550.813,36.104 550.813,35.366 C 550.813,34.443 550.179,34.168 549.442,34.176 L 547.736,34.176 L 547.736,36.484 z M 547.241,33.706 L 549.442,33.706 C 551.134,33.706 551.308,34.799 551.308,35.35 C 551.308,36.104 550.878,36.662 550.208,36.76 L 550.208,36.776 C 550.747,36.905 551.112,37.464 551.112,38.072 C 551.112,39.149 550.317,39.489 549.442,39.489 L 547.241,39.489 L 547.241,33.706 z M 547.736,39.02 L 549.442,39.02 C 550.215,39.02 550.616,38.655 550.616,37.934 C 550.616,37.391 550.237,36.954 549.442,36.954 L 547.736,36.954 L 547.736,39.02"
               id="path2869"
               style="fill:#231f20;fill-opacity:1;fill-rule:evenodd;stroke:none" />
            <path
               d="M 552.103,33.706 L 555.733,33.706 L 555.733,34.176 L 552.598,34.176 L 552.598,36.46 L 555.5,36.46 L 555.5,36.93 L 552.598,36.93 L 552.598,39.02 L 555.697,39.02 L 555.697,39.489 L 552.103,39.489 L 552.103,33.706"
               id="path2871"
               style="fill:#231f20;fill-opacity:1;fill-rule:nonzero;stroke:none" />
            <path
               d="M 556.424,33.706 L 556.919,33.706 L 556.919,36.274 L 558.8,36.274 C 559.741,36.314 559.799,35.415 559.843,34.605 C 559.857,34.362 559.857,33.933 559.981,33.706 L 560.528,33.706 C 560.309,33.997 560.309,34.791 560.287,35.188 C 560.251,35.877 560.054,36.395 559.376,36.492 L 559.376,36.508 C 560.047,36.654 560.389,37.254 560.389,37.983 C 560.389,39.028 559.668,39.489 558.807,39.489 L 556.424,39.489 L 556.424,33.706 z M 556.919,39.02 L 558.771,39.02 C 559.515,39.02 559.894,38.574 559.894,37.869 C 559.894,37.165 559.376,36.743 558.771,36.743 L 556.919,36.743 L 556.919,39.02"
               id="path2873"
               style="fill:#231f20;fill-opacity:1;fill-rule:evenodd;stroke:none" />
            <path
               d="M 565.733,36.646 L 563.524,36.646 L 563.524,36.176 L 565.295,36.176 C 565.317,34.953 564.647,34.054 563.495,34.054 C 562.117,34.054 561.534,35.334 561.534,36.598 C 561.534,37.861 562.117,39.141 563.495,39.141 C 564.486,39.141 565.106,38.355 565.171,37.691 L 565.667,37.691 C 565.478,38.955 564.588,39.611 563.495,39.611 C 561.854,39.611 561.038,38.177 561.038,36.598 C 561.038,35.018 561.854,33.584 563.495,33.584 C 564.245,33.584 564.945,33.933 565.295,34.759 L 565.31,34.759 L 565.375,33.706 L 565.733,33.706 L 565.733,36.646"
               id="path2875"
               style="fill:#231f20;fill-opacity:1;fill-rule:nonzero;stroke:none" />
            <path
               d="M 480.684,44.296 L 478.475,44.296 L 478.475,43.826 L 480.246,43.826 C 480.268,42.603 479.598,41.704 478.446,41.704 C 477.068,41.704 476.485,42.984 476.485,44.248 C 476.485,45.511 477.068,46.791 478.446,46.791 C 479.437,46.791 480.057,46.005 480.123,45.341 L 480.618,45.341 C 480.429,46.605 479.539,47.261 478.446,47.261 C 476.806,47.261 475.989,45.827 475.989,44.248 C 475.989,42.668 476.806,41.234 478.446,41.234 C 479.197,41.234 479.897,41.583 480.246,42.409 L 480.261,42.409 L 480.327,41.356 L 480.684,41.356 L 480.684,44.296"
               id="path2877"
               style="fill:#231f20;fill-opacity:1;fill-rule:nonzero;stroke:none" />
            <path
               d="M 481.638,41.356 L 485.268,41.356 L 485.268,41.826 L 482.133,41.826 L 482.133,44.11 L 485.035,44.11 L 485.035,44.58 L 482.133,44.58 L 482.133,46.67 L 485.232,46.67 L 485.232,47.139 L 481.638,47.139 L 481.638,41.356"
               id="path2879"
               style="fill:#231f20;fill-opacity:1;fill-rule:nonzero;stroke:none" />
            <path
               d="M 485.682,44.248 C 485.682,42.668 486.498,41.234 488.138,41.234 C 489.771,41.234 490.588,42.668 490.588,44.248 C 490.588,45.827 489.771,47.261 488.138,47.261 C 486.498,47.261 485.682,45.827 485.682,44.248 z M 486.177,44.248 C 486.177,45.511 486.761,46.791 488.138,46.791 C 489.509,46.791 490.092,45.511 490.092,44.248 C 490.092,42.984 489.509,41.704 488.138,41.704 C 486.761,41.704 486.177,42.984 486.177,44.248"
               id="path2881"
               style="fill:#231f20;fill-opacity:1;fill-rule:evenodd;stroke:none" />
            <path
               d="M 491.359,41.356 L 491.855,41.356 L 491.855,43.924 L 493.736,43.924 C 494.676,43.964 494.735,43.065 494.778,42.255 C 494.793,42.012 494.793,41.583 494.917,41.356 L 495.464,41.356 C 495.245,41.647 495.245,42.441 495.223,42.838 C 495.187,43.527 494.99,44.045 494.312,44.142 L 494.312,44.158 C 494.982,44.304 495.325,44.904 495.325,45.633 C 495.325,46.678 494.603,47.139 493.743,47.139 L 491.359,47.139 L 491.359,41.356 z M 491.855,46.67 L 493.707,46.67 C 494.45,46.67 494.829,46.224 494.829,45.519 C 494.829,44.815 494.312,44.393 493.707,44.393 L 491.855,44.393 L 491.855,46.67"
               id="path2883"
               style="fill:#231f20;fill-opacity:1;fill-rule:evenodd;stroke:none" />
            <path
               d="M 500.668,44.296 L 498.459,44.296 L 498.459,43.826 L 500.231,43.826 C 500.253,42.603 499.582,41.704 498.43,41.704 C 497.052,41.704 496.469,42.984 496.469,44.248 C 496.469,45.511 497.052,46.791 498.43,46.791 C 499.422,46.791 500.041,46.005 500.107,45.341 L 500.603,45.341 C 500.413,46.605 499.524,47.261 498.43,47.261 C 496.79,47.261 495.974,45.827 495.974,44.248 C 495.974,42.668 496.79,41.234 498.43,41.234 C 499.181,41.234 499.881,41.583 500.231,42.409 L 500.245,42.409 L 500.311,41.356 L 500.668,41.356 L 500.668,44.296"
               id="path2885"
               style="fill:#231f20;fill-opacity:1;fill-rule:nonzero;stroke:none" />
            <path
               d="M 501.535,43.348 L 503.3574,43.348 L 503.3574,43.81782 L 501.535,43.81782 L 501.535,43.348 z"
               id="path2887"
               style="fill:#231f20;fill-opacity:1;fill-rule:nonzero;stroke:none" />
            <path
               d="M 504.055,43.259 C 503.997,41.85 504.901,41.234 506.133,41.234 C 507.977,41.234 508.123,42.49 508.123,42.887 C 508.123,43.835 507.511,44.191 506.774,44.41 L 505.506,44.758 C 505.083,44.871 504.719,45.098 504.719,45.641 C 504.719,46.499 505.346,46.791 506.024,46.791 C 506.76,46.791 507.416,46.345 507.445,45.463 L 507.941,45.463 C 507.948,46.645 507.044,47.261 506.016,47.261 C 504.551,47.261 504.223,46.2 504.223,45.633 C 504.223,44.734 504.784,44.41 505.397,44.24 L 506.556,43.924 C 507.037,43.794 507.627,43.535 507.627,42.879 C 507.627,42.036 506.796,41.704 506.25,41.704 C 505.302,41.704 504.529,42.069 504.551,43.259 L 504.055,43.259"
               id="path2889"
               style="fill:#231f20;fill-opacity:1;fill-rule:nonzero;stroke:none" />
            <path
               d="M 508.946,41.356 L 509.44176,41.356 L 509.44176,47.1394 L 508.946,47.1394 L 508.946,41.356 z"
               id="path2891"
               style="fill:#231f20;fill-opacity:1;fill-rule:nonzero;stroke:none" />
            <path
               d="M 510.511,41.356 L 511.006,41.356 L 511.006,46.354 L 511.021,46.354 L 512.807,41.356 L 513.274,41.356 L 515.052,46.354 L 515.067,46.354 L 515.067,41.356 L 515.563,41.356 L 515.563,47.139 L 514.833,47.139 L 513.04,42.069 L 511.24,47.139 L 510.511,47.139 L 510.511,41.356"
               id="path2893"
               style="fill:#231f20;fill-opacity:1;fill-rule:nonzero;stroke:none" />
            <path
               d="M 516.318,44.248 C 516.318,42.668 517.134,41.234 518.775,41.234 C 520.408,41.234 521.224,42.668 521.224,44.248 C 521.224,45.827 520.408,47.261 518.775,47.261 C 517.134,47.261 516.318,45.827 516.318,44.248 z M 516.814,44.248 C 516.814,45.511 517.397,46.791 518.775,46.791 C 520.145,46.791 520.729,45.511 520.729,44.248 C 520.729,42.984 520.145,41.704 518.775,41.704 C 517.397,41.704 516.814,42.984 516.814,44.248"
               id="path2895"
               style="fill:#231f20;fill-opacity:1;fill-rule:evenodd;stroke:none" />
            <path
               d="M 521.988,41.356 L 522.484,41.356 L 522.484,46.248 L 522.499,46.248 L 525.531,41.356 L 526.085,41.356 L 526.085,47.139 L 525.59,47.139 L 525.59,42.247 L 525.575,42.247 L 522.542,47.139 L 521.988,47.139 L 521.988,41.356"
               id="path2897"
               style="fill:#231f20;fill-opacity:1;fill-rule:nonzero;stroke:none" />
            <path
               d="M 527.038,43.348 L 528.8604,43.348 L 528.8604,43.81782 L 527.038,43.81782 L 527.038,43.348 z"
               id="path2899"
               style="fill:#231f20;fill-opacity:1;fill-rule:nonzero;stroke:none" />
            <path
               d="M 529.544,44.248 C 529.544,42.668 530.361,41.234 532.001,41.234 C 533.634,41.234 534.451,42.668 534.451,44.248 C 534.451,45.827 533.634,47.261 532.001,47.261 C 530.361,47.261 529.544,45.827 529.544,44.248 z M 530.04,44.248 C 530.04,45.511 530.623,46.791 532.001,46.791 C 533.372,46.791 533.955,45.511 533.955,44.248 C 533.955,42.984 533.372,41.704 532.001,41.704 C 530.623,41.704 530.04,42.984 530.04,44.248"
               id="path2901"
               style="fill:#231f20;fill-opacity:1;fill-rule:evenodd;stroke:none" />
            <path
               d="M 535.222,41.356 L 535.718,41.356 L 535.718,44.158 L 538.809,44.158 L 538.809,41.356 L 539.305,41.356 L 539.305,47.139 L 538.809,47.139 L 538.809,44.628 L 535.718,44.628 L 535.718,47.139 L 535.222,47.139 L 535.222,41.356"
               id="path2903"
               style="fill:#231f20;fill-opacity:1;fill-rule:nonzero;stroke:none" />
            <path
               d="M 540.338,41.356 L 540.833,41.356 L 540.833,46.354 L 540.848,46.354 L 542.634,41.356 L 543.101,41.356 L 544.879,46.354 L 544.894,46.354 L 544.894,41.356 L 545.39,41.356 L 545.39,47.139 L 544.661,47.139 L 542.867,42.069 L 541.067,47.139 L 540.338,47.139 L 540.338,41.356"
               id="path2905"
               style="fill:#231f20;fill-opacity:1;fill-rule:nonzero;stroke:none" />
            <path
               d="M 449.116,55.684 L 471.104,55.684 L 471.101,44.128 L 467.018,39.505 L 471.101,39.501 L 471.101,33.696 L 461.056,33.702 L 461.056,51.132 L 459.165,51.132 L 459.165,33.702 L 449.116,33.702 L 449.116,39.501 L 453.199,39.501 L 449.116,44.128 L 449.116,55.684"
               id="path2907"
               style="fill:#034ea2;fill-opacity:1;fill-rule:nonzero;stroke:none" />
          </g>
        </g>
      </g>
    </g>
  </g>
</svg>
